<?xml version="1.0" encoding="UTF-8" standalone="no"?>
<!-- Created with Inkscape (http://www.inkscape.org/) -->

<svg
   width="46.591076mm"
   height="46.591011mm"
   viewBox="0 0 46.591076 46.591011"
   version="1.1"
   id="svg1"
   xmlns="http://www.w3.org/2000/svg"
   xmlns:svg="http://www.w3.org/2000/svg">
  <defs
     id="defs1">
    <mask
       maskUnits="userSpaceOnUse"
       id="mask-powermask-path-effect5">
      <path
         id="mask-powermask-path-effect5_box"
         style="fill:#ffffff;fill-opacity:1"
         d="m 75.024254,132.32347 h 48.591076 v 11.9902 H 75.024254 Z" />
      <path
         id="mask-powermask-path-effect3_box"
         style="fill:#ffffff;fill-opacity:1"
         d="m 75.024254,132.32347 h 48.591076 v 11.9902 H 75.024254 Z" />
      <g
         id="g5"
         style="stroke-width:0.999999">
        <path
           style="fill:none;stroke:#000000;stroke-width:8.00001;stroke-linecap:round;stroke-dasharray:none;stroke-opacity:1"
           d="m 113.26532,132.55924 v 2.81693"
           id="path4" />
        <path
           style="fill:none;stroke:#000000;stroke-width:8.00001;stroke-linecap:round;stroke-dasharray:none;stroke-opacity:1"
           d="m 85.374004,132.59121 v 2.81693"
           id="path5" />
      </g>
    </mask>
  </defs>
  <g
     id="layer1"
     transform="translate(-76.024246,-127.83953)">
    <path
       style="fill:#ff2a2a;stroke:none;stroke-width:6;stroke-linecap:round;stroke-dasharray:none;stroke-opacity:1"
       id="rect1"
       width="46.591076"
       height="9.9902"
       x="76.024254"
       y="133.32347"
       ry="4.5563736"
       mask="url(#mask-powermask-path-effect5)"
       d="m 80.580627,133.32347 h 37.478333 c 2.52423,0 4.55637,2.03214 4.55637,4.55637 v 0.87746 c 0,2.52423 -2.03214,4.55637 -4.55637,4.55637 H 80.580627 c -2.524231,0 -4.556373,-2.03214 -4.556373,-4.55637 v -0.87746 c 0,-2.52423 2.032142,-4.55637 4.556373,-4.55637 z"
       rx="4.5563736" />
    <rect
       style="fill:#dbdee3;stroke:none;stroke-width:6.00001;stroke-linecap:round;stroke-dasharray:none;stroke-opacity:1"
       id="rect2"
       width="46.591076"
       height="27.966171"
       x="76.024254"
       y="144.75015"
       ry="5.2264285"
       rx="5.2264285" />
    <path
       style="fill:none;stroke:#939dac;stroke-width:6;stroke-linecap:round;stroke-dasharray:none;stroke-opacity:1"
       d="m 85.374003,132.55924 v 2.88088"
       id="path2" />
    <path
       style="fill:none;stroke:#939dac;stroke-width:6;stroke-linecap:round;stroke-dasharray:none;stroke-opacity:1"
       d="m 113.26532,132.55924 v 2.81693"
       id="path1-3" />
  </g>
</svg>
