<?xml version="1.0" encoding="UTF-8" standalone="no"?>
<!-- Created with Inkscape (http://www.inkscape.org/) -->

<svg
   width="96.48838mm"
   height="96.48848mm"
   viewBox="0 0 96.48838 96.48848"
   version="1.1"
   id="svg1"
   xmlns="http://www.w3.org/2000/svg"
   xmlns:svg="http://www.w3.org/2000/svg">
  <defs
     id="defs1" />
  <g
     id="layer1"
     transform="translate(-56.755636,-100.25577)">
    <path
       style="fill:#6f7c91;fill-opacity:1;stroke:#373e48;stroke-width:4.99999;stroke-linecap:round;stroke-dasharray:none"
       id="path2"
       d="m 86.203423,122.8987 c -11.778927,8.90331 -1.772466,14.38009 -16.424972,16.20112 -14.652506,1.82104 -6.291074,-5.93853 -19.891032,-11.68772 -13.599958,-5.74919 -13.339757,5.65504 -22.24307,-6.12388 -8.903312,-11.77893 1.997383,-8.4175 0.176351,-23.070003 C 25.999668,83.565711 16.253409,89.493171 22.002602,75.893213 27.751795,62.293255 30.291058,73.414249 42.069984,64.510936 53.848911,55.607624 43.84245,50.130845 58.494956,48.309813 c 14.652506,-1.821031 6.291074,5.938532 19.891032,11.687725 13.599958,5.749194 13.339757,-5.655045 22.243072,6.123881 8.90331,11.778927 -1.997385,8.417496 -0.17635,23.070002 1.82103,14.652509 11.56729,8.725046 5.8181,22.324999 -5.7492,13.59996 -8.288461,2.47897 -20.067387,11.38228 z"
       transform="rotate(7.0718631,-358.81497,451.75384)" />
    <circle
       style="fill:#535d6c;fill-opacity:1;stroke:#373e48;stroke-width:5;stroke-linecap:round;stroke-dasharray:none"
       id="path1"
       cx="105"
       cy="148.5"
       r="18.590899" />
  </g>
</svg>
