<?xml version="1.0" encoding="UTF-8" standalone="no"?>
<!-- Created with Inkscape (http://www.inkscape.org/) -->

<svg
   width="86.254158mm"
   height="86.254166mm"
   viewBox="0 0 86.254158 86.254166"
   version="1.1"
   id="svg1"
   sodipodi:docname="sunrise.svg"
   inkscape:export-filename="../Exports/sunriseSquare.svg"
   inkscape:export-xdpi="96.07872"
   inkscape:export-ydpi="96.07872"
   inkscape:version="1.4.4 (dcaf3e7d9e, 2026-05-05)"
   xml:space="preserve"
   xmlns:inkscape="http://www.inkscape.org/namespaces/inkscape"
   xmlns:sodipodi="http://sodipodi.sourceforge.net/DTD/sodipodi-0.dtd"
   xmlns="http://www.w3.org/2000/svg"
   xmlns:svg="http://www.w3.org/2000/svg"><sodipodi:namedview
     id="namedview1"
     pagecolor="#505050"
     bordercolor="#ffffff"
     borderopacity="1"
     inkscape:showpageshadow="0"
     inkscape:pageopacity="0"
     inkscape:pagecheckerboard="1"
     inkscape:deskcolor="#505050"
     inkscape:document-units="mm"
     inkscape:zoom="0.71712239"
     inkscape:cx="412.06355"
     inkscape:cy="612.8661"
     inkscape:window-width="1536"
     inkscape:window-height="888"
     inkscape:window-x="0"
     inkscape:window-y="0"
     inkscape:window-maximized="1"
     inkscape:current-layer="layer1"><inkscape:page
       x="0"
       y="0"
       width="86.254158"
       height="86.254166"
       id="page2"
       margin="0"
       bleed="0" /></sodipodi:namedview><defs
     id="defs1" /><g
     id="layer1-9"
     transform="matrix(0.41938686,0,0,0.41938686,1.1532659,-11.821413)"
     mask="none"><path
       id="path1"
       style="fill:#ffd42a;stroke:#ffd42a;stroke-width:3;stroke-linecap:round"
       d="m 99.999508,101.49948 a 48.5,48.5 0 0 0 -48.499001,48.50023 48.5,48.5 0 0 0 1.701654,12.73469 c 15.28802,-7.21548 31.230942,-13.98783 46.797347,-13.98783 15.566782,0 31.510222,6.77215 46.798582,13.98783 a 48.5,48.5 0 0 0 1.70165,-12.73469 48.5,48.5 0 0 0 -48.500232,-48.50023 z" /><g
       id="g2"><path
         style="fill:#ffd42a;stroke:#ffd42a;stroke-width:8;stroke-linecap:round;stroke-dasharray:none;stroke-opacity:1"
         d="M 99.999997,59 V 90.999972"
         id="path2" /><path
         style="fill:#ffd42a;stroke:#ffd42a;stroke-width:8;stroke-linecap:round;stroke-dasharray:none;stroke-opacity:1"
         d="m 159,150 h 31.99997"
         id="path2-3-6" /><path
         style="fill:#ffd42a;stroke:#ffd42a;stroke-width:8;stroke-linecap:round;stroke-dasharray:none;stroke-opacity:1"
         d="M 9,150 H 40.99997"
         id="path2-3-6-2" /></g><g
       id="g2-5"
       transform="rotate(45,99.999985,149.99998)"><path
         style="fill:#ffd42a;stroke:#ffd42a;stroke-width:8;stroke-linecap:round;stroke-dasharray:none;stroke-opacity:1"
         d="M 99.999997,59 V 90.999972"
         id="path2-9" /><path
         style="fill:#ffd42a;stroke:#ffd42a;stroke-width:8;stroke-linecap:round;stroke-dasharray:none;stroke-opacity:1"
         d="M 9,150 H 40.99997"
         id="path2-3-6-2-9" /></g></g><g
     inkscape:label="Layer 1"
     inkscape:groupmode="layer"
     id="layer1"
     transform="translate(-61.908047,-81.835625)"><path
       style="fill:#f34d4d;fill-opacity:0;stroke:#8dd35f;stroke-width:6.49999;stroke-linecap:round"
       d="m 65.158041,153.56948 c 11.178028,0 25.871357,-13.007 39.841749,-13.007 13.97039,0 28.66371,13.007 39.84175,13.007"
       id="path3"
       sodipodi:nodetypes="cac" /></g></svg>
