<?xml version="1.0" encoding="UTF-8" standalone="no"?>
<!-- Created with Inkscape (http://www.inkscape.org/) -->

<svg
   width="148.29205mm"
   height="156.99446mm"
   viewBox="0 0 148.29205 156.99446"
   version="1.1"
   id="svg1"
   xml:space="preserve"
   inkscape:version="1.4.4 (dcaf3e7d9e, 2026-05-05)"
   sodipodi:docname="thunderstorm.svg"
   inkscape:export-filename="../../Exports/Weather/lightRain.svg"
   inkscape:export-xdpi="96"
   inkscape:export-ydpi="96"
   xmlns:inkscape="http://www.inkscape.org/namespaces/inkscape"
   xmlns:sodipodi="http://sodipodi.sourceforge.net/DTD/sodipodi-0.dtd"
   xmlns="http://www.w3.org/2000/svg"
   xmlns:svg="http://www.w3.org/2000/svg"><sodipodi:namedview
     id="namedview1"
     pagecolor="#505050"
     bordercolor="#ffffff"
     borderopacity="1"
     inkscape:showpageshadow="0"
     inkscape:pageopacity="0"
     inkscape:pagecheckerboard="1"
     inkscape:deskcolor="#505050"
     inkscape:document-units="mm"
     inkscape:zoom="0.40126425"
     inkscape:cx="300.30086"
     inkscape:cy="504.65498"
     inkscape:window-width="1536"
     inkscape:window-height="888"
     inkscape:window-x="0"
     inkscape:window-y="0"
     inkscape:window-maximized="1"
     inkscape:current-layer="layer1"><inkscape:page
       x="0"
       y="4.0518189e-20"
       width="148.29205"
       height="156.99445"
       id="page2"
       margin="0"
       bleed="0" /></sodipodi:namedview><defs
     id="defs1" /><g
     inkscape:label="Layer 1"
     inkscape:groupmode="layer"
     id="layer1"
     transform="translate(-27.730659,-80.725603)"><g
       id="g3"
       style="fill:#535d6c"
       transform="translate(4.4434544,-12.153066)"
       mask="none"><circle
         style="fill:#535d6c;stroke-width:7.99999;stroke-linecap:round"
         id="path1-8"
         cx="49.688789"
         cy="151.47205"
         r="26.401585" /><g
         id="g2-4"
         style="fill:#535d6c"><rect
           style="fill:#535d6c;stroke-width:7.99999;stroke-linecap:round"
           id="rect1"
           width="133.15854"
           height="43.127945"
           x="38.420731"
           y="134.74568"
           ry="21.563972"
           rx="18.416798" /><circle
           style="fill:#535d6c;stroke-width:7.99999;stroke-linecap:round"
           id="path1-2"
           cx="91.279678"
           cy="123.21307"
           r="30.334402" /><circle
           style="fill:#535d6c;stroke-width:7.99997;stroke-linecap:round"
           id="path1-2-4"
           cx="131.64046"
           cy="131.35643"
           r="23.905502" /><rect
           style="fill:#535d6c;stroke-width:7.99999;stroke-linecap:round"
           id="rect2"
           width="37.669643"
           height="26.401579"
           x="49.688789"
           y="151.47205"
           rx="0"
           ry="0" /></g></g><path
       style="fill:#aaeeff;stroke:#6699ff;stroke-width:6;stroke-linecap:round;stroke-dasharray:none;stroke-opacity:1"
       d="m 153.98941,173.1749 v 44.06044"
       id="path17"
       sodipodi:nodetypes="cc" /><path
       style="fill:none;stroke:#6699ff;stroke-width:6;stroke-linecap:round;stroke-dasharray:none;stroke-opacity:1"
       d="m 51.132248,174.87436 v 31.23862"
       id="path17-9-8-3"
       sodipodi:nodetypes="cc" /><path
       style="fill:none;stroke:#6699ff;stroke-width:6;stroke-linecap:round;stroke-dasharray:none;stroke-opacity:1"
       d="M 91.801891,178.72957 V 208.1032"
       id="path17-9-8-3-1"
       sodipodi:nodetypes="cc" /><path
       style="fill:none;stroke:#6699ff;stroke-width:6;stroke-linecap:round;stroke-dasharray:none;stroke-opacity:1"
       d="m 109.17841,202.52237 v 25.76722"
       id="path17-9-8-3-1-0"
       sodipodi:nodetypes="cc" /><path
       style="fill:none;stroke:#6699ff;stroke-width:6;stroke-linecap:round;stroke-dasharray:none;stroke-opacity:1"
       d="m 122.11568,173.17534 0.23312,20.17224"
       id="path17-9-8-3-1-0-6"
       sodipodi:nodetypes="cc" /><g
       id="g1"
       transform="matrix(0.24037225,-0.0552856,0.0552856,0.24037225,36.942379,165.25856)"><path
         id="path1"
         style="fill:#ffdd55;stroke-width:0.1;stroke-linecap:round"
         d="m 119.71052,174.44917 c 0,0 -55.40017,-23.3947 -56.802678,-31.15954 -1.402508,-7.76484 64.263598,-83.704726 71.587938,-82.002721 7.32434,1.702005 -14.78526,113.162261 -14.78526,113.162261 z" /><path
         id="path1-5"
         style="fill:#ffdd55;stroke-width:0.1;stroke-linecap:round"
         d="m 96.520913,113.7323 c 16.581427,19.39797 57.520677,35.20252 56.920357,42.23455 -0.60032,7.03206 -66.076702,79.38825 -72.993763,75.98686 -6.917063,-3.40143 10.777537,-79.26981 16.073406,-118.22141 z" /></g><g
       id="g1-6"
       transform="matrix(0.24037225,-0.0552856,0.0552856,0.24037225,100.22532,186.40574)"><path
         id="path1-4"
         style="fill:#ffdd55;stroke-width:0.1;stroke-linecap:round"
         d="m 119.71052,174.44917 c 0,0 -55.40017,-23.3947 -56.802678,-31.15954 -1.402508,-7.76484 64.263598,-83.704726 71.587938,-82.002721 7.32434,1.702005 -14.78526,113.162261 -14.78526,113.162261 z" /><path
         id="path1-5-1"
         style="fill:#ffdd55;stroke-width:0.1;stroke-linecap:round"
         d="m 96.520913,113.7323 c 16.581427,19.39797 57.520677,35.20252 56.920357,42.23455 -0.60032,7.03206 -66.076702,79.38825 -72.993763,75.98686 -6.917063,-3.40143 10.777537,-79.26981 16.073406,-118.22141 z" /></g></g></svg>
